<svg width="25" height="25" viewBox="-3 0 25 25" fill="none" xmlns="http://www.w3.org/2000/svg">
<path d="M12.8096 18.1661V6.36353H16.8631C17.6079 6.36353 18.2291 6.49223 18.7267 6.74964C19.2243 7.00706 19.5984 7.36436 19.8488 7.82156C20.0993 8.27491 20.2245 8.79742 20.2245 9.38909C20.2245 9.85013 20.1454 10.2555 19.9872 10.6051C19.829 10.9509 19.6115 11.2352 19.3347 11.458C19.0612 11.677 18.7481 11.8326 18.3955 11.9248V12.0401C18.7811 12.0593 19.1419 12.1861 19.4781 12.4204C19.8175 12.6548 20.0927 12.9833 20.3036 13.4059C20.5145 13.8247 20.62 14.3241 20.62 14.9043C20.62 15.5305 20.4865 16.0895 20.2196 16.5813C19.9559 17.0692 19.5654 17.4553 19.048 17.7396C18.5306 18.0239 17.8929 18.1661 17.1349 18.1661H12.8096ZM14.95 16.126H16.695C17.2915 16.126 17.7265 15.9935 18 15.7284C18.2736 15.4594 18.4103 15.1021 18.4103 14.6564C18.4103 14.3299 18.3428 14.0417 18.2076 13.792C18.0725 13.5423 17.8797 13.3463 17.6293 13.2042C17.3821 13.062 17.0872 12.9909 16.7444 12.9909H14.95V16.126ZM14.95 11.3024H16.5368C16.8301 11.3024 17.0905 11.2428 17.3178 11.1237C17.5485 11.0008 17.7298 10.8279 17.8616 10.6051C17.9967 10.3822 18.0643 10.1152 18.0643 9.80402C18.0643 9.37756 17.9341 9.0337 17.6738 8.77245C17.4167 8.51119 17.0509 8.38057 16.5764 8.38057H14.95V11.3024Z" fill="#83B7FF"/>
<path d="M3.79663 18.1661V6.36353H7.79081C8.55866 6.36353 9.21283 6.53449 9.75329 6.87643C10.2938 7.21452 10.7057 7.68517 10.9891 8.28836C11.2758 8.88771 11.4192 9.57927 11.4192 10.363C11.4192 11.1468 11.2742 11.8384 10.9842 12.4377C10.6942 13.0371 10.274 13.5039 9.72363 13.8381C9.17657 14.1724 8.51417 14.3395 7.73643 14.3395H5.19064V12.3397H7.3904C7.80234 12.3397 8.14178 12.2571 8.40872 12.0919C8.67895 11.9229 8.87998 11.6904 9.0118 11.3946C9.14692 11.0949 9.21447 10.7511 9.21447 10.363C9.21447 9.97115 9.14692 9.62921 9.0118 9.33722C8.87998 9.04139 8.67895 8.81279 8.40872 8.65143C8.13848 8.48622 7.79575 8.40362 7.38051 8.40362H5.93707V18.1661H3.79663Z" fill="#83B7FF"/>
</svg>
