<svg width="33" height="33" viewBox="0 0 33 33" fill="none" xmlns="http://www.w3.org/2000/svg">
<path d="M18.0068 27.7967V5.34662H25.7171C27.1338 5.34662 28.3154 5.59144 29.262 6.08107C30.2085 6.5707 30.92 7.25034 31.3964 8.11999C31.8728 8.98233 32.111 9.97621 32.111 11.1016C32.111 11.9786 31.9606 12.7496 31.6597 13.4146C31.3588 14.0723 30.9451 14.6131 30.4185 15.037C29.8982 15.4535 29.3027 15.7495 28.632 15.9249V16.1441C29.3654 16.1807 30.0518 16.4218 30.6912 16.8676C31.3368 17.3134 31.8603 17.9382 32.2614 18.7421C32.6626 19.5387 32.8632 20.4887 32.8632 21.5922C32.8632 22.7834 32.6093 23.8467 32.1016 24.7821C31.6001 25.7102 30.8573 26.4447 29.8731 26.9855C28.889 27.5263 27.676 27.7967 26.2343 27.7967H18.0068ZM22.0782 23.9161H25.3974C26.532 23.9161 27.3595 23.664 27.8798 23.1598C28.4 22.6482 28.6602 21.9686 28.6602 21.1208C28.6602 20.4997 28.5317 19.9516 28.2747 19.4765C28.0177 19.0015 27.6509 18.6288 27.1745 18.3584C26.7044 18.088 26.1434 17.9528 25.4914 17.9528H22.0782V23.9161ZM22.0782 14.741H25.0965C25.6544 14.741 26.1496 14.6277 26.5822 14.4012C27.021 14.1673 27.3657 13.8385 27.6165 13.4146C27.8735 12.9907 28.002 12.4828 28.002 11.8909C28.002 11.0797 27.7544 10.4256 27.2592 9.92871C26.7702 9.43176 26.0744 9.18329 25.1718 9.18329H22.0782V14.741Z" fill="#0E5DF5"/>
<path d="M0.863281 27.7967V5.34662H8.46073C9.92129 5.34662 11.1656 5.67182 12.1936 6.32223C13.2217 6.96533 14.0052 7.86055 14.5443 9.0079C15.0897 10.1479 15.3624 11.4634 15.3624 12.9542C15.3624 14.445 15.0865 15.7605 14.5349 16.9005C13.9833 18.0405 13.1841 18.9285 12.1372 19.5642C11.0966 20.2 9.83666 20.5179 8.35729 20.5179H3.51486V16.7141H7.6991C8.48266 16.7141 9.12832 16.557 9.63607 16.2428C10.1501 15.9212 10.5325 15.4791 10.7832 14.9164C11.0402 14.3464 11.1687 13.6923 11.1687 12.9542C11.1687 12.2088 11.0402 11.5584 10.7832 11.003C10.5325 10.4403 10.1501 10.0054 9.63607 9.69851C9.12205 9.38426 8.47013 9.22714 7.68029 9.22714H4.93468V27.7967H0.863281Z" fill="#0E5DF5"/>
</svg>
