<svg width="25" height="25" viewBox="0 0 25 25" fill="none" xmlns="http://www.w3.org/2000/svg">
<path d="M12.9329 18.1661V6.36353H16.9864C17.7311 6.36353 18.3524 6.49223 18.85 6.74964C19.3476 7.00706 19.7216 7.36436 19.9721 7.82156C20.2226 8.27491 20.3478 8.79742 20.3478 9.38909C20.3478 9.85013 20.2687 10.2555 20.1105 10.6051C19.9523 10.9509 19.7348 11.2352 19.458 11.458C19.1845 11.677 18.8714 11.8326 18.5188 11.9248V12.0401C18.9044 12.0593 19.2652 12.1861 19.6014 12.4204C19.9408 12.6548 20.216 12.9833 20.4269 13.4059C20.6378 13.8247 20.7433 14.3241 20.7433 14.9043C20.7433 15.5305 20.6098 16.0895 20.3428 16.5813C20.0792 17.0692 19.6887 17.4553 19.1713 17.7396C18.6539 18.0239 18.0162 18.1661 17.2582 18.1661H12.9329ZM15.0733 16.126H16.8183C17.4148 16.126 17.8498 15.9935 18.1233 15.7284C18.3968 15.4594 18.5336 15.1021 18.5336 14.6564C18.5336 14.3299 18.466 14.0417 18.3309 13.792C18.1958 13.5423 18.003 13.3463 17.7526 13.2042C17.5054 13.062 17.2105 12.9909 16.8677 12.9909H15.0733V16.126ZM15.0733 11.3024H16.6601C16.9534 11.3024 17.2137 11.2428 17.4411 11.1237C17.6718 11.0008 17.8531 10.8279 17.9849 10.6051C18.12 10.3822 18.1876 10.1152 18.1876 9.80402C18.1876 9.37756 18.0574 9.0337 17.7971 8.77245C17.54 8.51119 17.1742 8.38057 16.6996 8.38057H15.0733V11.3024Z" fill="#1161DE"/>
<path d="M3.91992 18.1661V6.36353H7.9141C8.68196 6.36353 9.33612 6.53449 9.87658 6.87643C10.417 7.21452 10.829 7.68517 11.1124 8.28836C11.3991 8.88771 11.5425 9.57927 11.5425 10.363C11.5425 11.1468 11.3975 11.8384 11.1075 12.4377C10.8175 13.0371 10.3973 13.5039 9.84692 13.8381C9.29987 14.1724 8.63747 14.3395 7.85972 14.3395H5.31393V12.3397H7.51369C7.92563 12.3397 8.26507 12.2571 8.53201 12.0919C8.80224 11.9229 9.00327 11.6904 9.13509 11.3946C9.27021 11.0949 9.33776 10.7511 9.33776 10.363C9.33776 9.97115 9.27021 9.62921 9.13509 9.33722C9.00327 9.04139 8.80224 8.81279 8.53201 8.65143C8.26178 8.48622 7.91904 8.40362 7.5038 8.40362H6.06037V18.1661H3.91992Z" fill="#1161DE"/>
</svg>
